# xmcd
#
# Track frame offsets: 
#        150
#        16038
#        28585
#        46115
#        59968
#        74330
#        91658
#        103850
#        113678
#        128923
#        140498
#
# Disc length: 2042 seconds
#
# Revision: 9
# Processed by: cddbd v1.5.2PL0 Copyright (c) Steve Scherf et al.
# Submitted via: ExactAudioCopyFreeDBPlugin 1.0
#
DISCID=9207f80b
DTITLE=Otis Redding - The Soul Album
DYEAR=1966
DGENRE=Soul
TTITLE0=Just One More Day
TTITLE1=It's Growing
TTITLE2=Cigarettes and Coffee
TTITLE3=Chain Gang
TTITLE4=Nobody Knows You (When You're Down and Out)
TTITLE5=Good to Me
TTITLE6=Scratch My Back
TTITLE7=Treat Her Right
TTITLE8=Everybody Makes a Mistake
TTITLE9=Any Ole Way
TTITLE10=634-5789 (Soulsville, U.S.A.)
EXTD=
EXTT0=
EXTT1=
EXTT2=
EXTT3=
EXTT4=
EXTT5=
EXTT6=
EXTT7=
EXTT8=
EXTT9=
EXTT10=
PLAYORDER=
